<svg version="1.1" id="Layer_1" xmlns="http://www.w3.org/2000/svg" xmlns:xlink="http://www.w3.org/1999/xlink" x="0px" y="0px"
	 width="100%" viewBox="0 0 500 500" enable-background="new 0 0 500 500" xml:space="preserve">
<path fill="#000000" opacity="1.000000" stroke="none" 
	d="
M293.000000,501.000000 
	C195.333359,501.000000 98.166710,501.000000 1.000052,501.000000 
	C1.000035,334.333405 1.000035,167.666794 1.000017,1.000142 
	C167.666565,1.000094 334.333130,1.000094 500.999756,1.000047 
	C500.999847,167.666519 500.999847,334.333038 500.999939,500.999786 
	C431.833344,501.000000 362.666656,501.000000 293.000000,501.000000 
M150.354858,225.694214 
	C150.354858,225.694214 150.536713,225.442566 151.300125,226.072754 
	C153.743774,225.566803 156.187408,225.060852 158.629562,225.407150 
	C159.362122,227.675720 160.094681,229.944290 161.742508,232.202423 
	C159.799744,239.436020 157.856979,246.669617 155.914215,253.903214 
	C156.274612,254.015579 156.635025,254.127945 156.995422,254.240311 
	C163.001892,242.505630 169.008347,230.770950 175.893158,219.174225 
	C180.099274,225.309128 170.830582,226.343750 171.349915,232.991638 
	C175.013077,229.664597 177.769821,227.160797 180.061737,225.079178 
	C179.634018,223.280853 179.173294,221.964203 179.028122,220.613602 
	C178.638474,216.988678 177.036957,215.928879 173.130737,218.143082 
	C171.946609,219.411774 170.762482,220.680466 169.206360,222.347702 
	C168.577026,220.651703 168.142654,219.481110 167.402786,217.487244 
	C165.758423,222.366623 164.487335,226.400925 162.994431,230.351395 
	C162.688187,231.161804 161.551956,231.658539 160.912842,231.377991 
	C161.263153,226.753433 161.613480,222.128876 161.951508,217.666489 
	C156.406815,213.133072 153.025162,216.449249 149.979660,221.032852 
	C149.634277,221.552658 148.766739,222.369629 148.603973,222.272629 
	C144.422684,219.780426 143.971542,224.189331 142.236374,225.826859 
	C138.410797,229.437210 134.854126,233.332504 130.325531,238.000214 
	C129.933060,222.416687 142.049316,195.174362 149.663086,192.964478 
	C149.872604,194.801453 150.078125,196.603287 150.283646,198.405136 
	C150.794540,198.376740 151.305435,198.348343 151.816330,198.319946 
	C151.816330,196.125992 152.721878,193.107620 151.629715,191.907990 
	C149.282959,189.330307 146.311142,190.833511 144.351791,193.144928 
	C142.217026,195.663300 139.972748,198.305939 138.688782,201.287399 
	C134.955414,209.956512 131.329117,218.708405 128.409531,227.671692 
	C127.369164,230.865662 127.137054,236.774673 128.872940,237.928482 
	C132.919449,240.618103 135.873352,236.005417 138.535263,233.250153 
	C141.665009,230.010666 144.425186,226.414124 148.106964,222.075165 
	C148.106964,225.038910 148.106964,226.759293 148.106964,228.503433 
	C151.964005,228.227600 151.964005,228.227600 150.782074,225.886780 
	C150.782074,225.886780 150.405899,226.000488 150.354858,225.694214 
M198.986298,225.139053 
	C198.765869,224.929092 198.545425,224.719116 198.338409,223.823730 
	C198.677307,222.167557 199.016220,220.511368 199.355118,218.855194 
	C198.706741,218.743332 198.058365,218.631485 197.409988,218.519623 
	C196.965149,221.937241 196.520309,225.354843 196.075470,228.772476 
	C198.633987,227.351822 201.190643,225.927795 203.753723,224.515427 
	C204.029404,224.363510 204.342392,224.279297 204.642334,224.174591 
	C206.083572,228.823792 206.716187,229.054794 210.691635,225.993881 
	C211.551758,227.109406 212.411880,228.224915 213.882416,230.132095 
	C216.956406,226.376419 219.902298,222.777252 222.807999,219.227219 
	C223.767319,220.003296 224.374756,220.494720 224.982208,220.986130 
	C225.295212,220.805450 225.608200,220.624771 225.921204,220.444092 
	C225.505585,219.171417 225.089966,217.898758 224.674347,216.626068 
	C222.611038,217.369232 220.547714,218.112396 218.506271,218.847687 
	C218.315063,218.133850 218.076584,217.243469 217.843338,216.372604 
	C215.094910,219.844055 212.569122,223.034286 209.232834,225.956894 
	C208.578400,223.719025 207.923950,221.481171 206.922684,218.057343 
	C204.108963,221.037125 201.845139,223.434570 198.986298,225.139053 
M305.734528,267.268890 
	C305.420502,268.821289 305.106476,270.373688 304.792450,271.926086 
	C305.256500,272.279694 305.720581,272.633331 306.184631,272.986938 
	C309.245605,269.435364 312.306580,265.883789 315.366486,262.333466 
	C316.134430,262.872192 316.886047,263.399475 318.852173,264.778687 
	C317.905060,262.131866 317.291077,259.693665 317.003876,259.731567 
	C315.250641,259.962921 313.571594,260.756500 311.470612,261.503906 
	C311.305298,261.125031 310.967804,260.351410 310.579224,259.460754 
	C309.229156,260.182495 307.887817,260.899567 307.440491,261.138733 
	C306.790771,263.015289 306.367706,264.237274 305.218475,265.271118 
	C304.585724,265.133942 303.592285,264.672333 303.377533,264.911102 
	C301.714203,266.760437 300.334686,268.873688 298.612610,270.659668 
	C295.508942,273.878418 292.228088,276.926331 288.327057,280.720764 
	C287.818604,265.763245 299.908295,238.492691 307.598633,236.004608 
	C307.833496,237.828049 308.063385,239.612823 308.293274,241.397598 
	C308.779999,241.367386 309.266754,241.337173 309.753479,241.306976 
	C309.753479,239.114960 309.753479,236.922928 309.753479,234.730911 
	C307.370209,235.097855 304.983826,235.446533 302.608063,235.857086 
	C302.339386,235.903519 302.100616,236.275330 301.898956,236.535721 
	C292.640686,248.491989 287.840515,262.352753 285.106750,276.973846 
	C284.298950,281.294220 287.588562,283.293945 291.234314,280.817139 
	C294.204132,278.799561 296.621307,275.941284 299.178101,273.351654 
	C301.193878,271.309967 303.049103,269.109772 305.734528,267.268890 
M274.874481,186.626663 
	C268.604401,184.641602 266.894318,185.655045 263.827911,193.052841 
	C259.038605,192.200989 255.835999,194.538528 254.285355,198.537247 
	C250.640350,207.936829 247.301086,217.463547 244.172760,227.048035 
	C243.501770,229.103745 243.825195,231.737320 244.419556,233.904785 
	C246.138367,240.172928 248.506073,246.273849 249.993195,252.587814 
	C250.404922,254.335922 249.118729,257.029633 247.773407,258.545776 
	C243.359528,263.520050 238.495026,268.090973 233.932907,272.938507 
	C231.084946,275.964661 228.584808,279.246460 230.367905,284.059906 
	C236.461304,284.250671 242.571838,286.337036 248.518021,283.347473 
	C247.339722,282.295654 246.001022,282.314941 244.958313,281.768951 
	C243.433197,280.970367 241.543594,280.020996 240.933838,278.639557 
	C240.569305,277.813690 242.154831,275.854919 243.212952,274.735352 
	C244.921005,272.928192 246.811172,271.250305 248.810684,269.769257 
	C255.656616,264.698425 261.499390,259.088684 260.921021,249.579224 
	C260.908539,249.373383 261.270386,249.144791 261.450684,248.934906 
	C266.883698,250.750641 267.151093,255.006683 266.776306,259.719116 
	C266.191101,267.078125 265.775146,274.450562 265.265106,282.155548 
	C271.274780,281.835663 277.007416,284.983704 283.320312,281.359406 
	C282.052032,280.652222 281.508820,280.085876 280.969269,280.089386 
	C275.771118,280.122894 274.504242,277.267456 274.955750,272.617035 
	C275.468750,267.333191 275.986938,261.994995 275.757568,256.712769 
	C275.599091,253.062866 274.753143,249.190491 273.178131,245.915955 
	C271.036285,241.462860 267.864746,237.511169 265.208984,233.297668 
	C261.390930,227.240097 261.065277,221.175888 264.806396,216.026932 
	C267.951660,216.026932 270.665344,216.571060 273.039093,215.904556 
	C277.000214,214.792343 278.549774,211.499268 278.498718,207.483475 
	C278.460114,204.446777 278.957367,202.100739 282.761658,201.550980 
	C285.135834,201.207901 287.360962,199.833481 290.010895,198.779541 
	C289.931976,197.724182 289.830933,196.372711 289.781250,195.708374 
	C285.133789,194.855988 281.112671,194.118454 276.739624,193.316391 
	C277.427216,191.924515 278.028748,190.706848 278.698151,189.351746 
	C277.596771,188.565704 276.526062,187.801529 274.874481,186.626663 
M335.293579,272.178162 
	C337.564789,271.202484 339.836029,270.226807 342.733032,268.982300 
	C347.183746,272.228333 347.207581,265.904602 349.733368,264.142365 
	C350.985474,264.387482 352.311646,264.647095 353.149078,264.811035 
	C352.317871,261.883759 351.509460,259.036713 350.701019,256.189697 
	C350.376801,256.006714 350.052612,255.823730 349.728394,255.640747 
	C348.439972,259.235291 347.151550,262.829834 345.863098,266.424377 
	C345.518829,266.287628 345.174530,266.150848 344.830231,266.014099 
	C344.610535,264.550659 344.390839,263.087250 344.171112,261.623840 
	C343.801910,261.522491 343.432709,261.421112 343.063538,261.319763 
	C341.256073,264.302460 339.448608,267.285187 337.641144,270.267914 
	C337.375977,270.168793 337.110779,270.069672 336.845612,269.970551 
	C337.062103,266.721100 337.278595,263.471680 337.422638,261.309662 
	C336.170563,263.123749 334.248566,265.908386 332.551636,268.366974 
	C333.289337,269.437714 334.059753,270.555939 335.293579,272.178162 
M187.960403,223.826889 
	C187.208984,228.544632 186.457565,233.262390 185.706146,237.980133 
	C187.072464,236.480042 187.659454,234.870972 188.082443,233.219879 
	C190.095932,225.360443 191.916428,217.447083 194.148453,209.651077 
	C194.745911,207.564270 196.551086,205.823227 197.586670,204.250244 
	C192.854004,203.985855 198.318375,199.623840 196.581314,197.825775 
	C193.910950,200.551239 191.261551,203.255280 188.758835,205.809631 
	C189.398682,205.878632 190.657471,206.014404 192.121567,206.172318 
	C191.015015,210.934860 190.003006,215.440704 188.901459,219.924561 
	C188.629730,221.030655 188.066757,222.065186 187.960403,223.826889 
M329.364044,260.893280 
	C327.729614,258.308105 325.691376,258.743866 324.107025,260.648132 
	C321.737976,263.495575 319.538788,266.939941 322.255676,270.425720 
	C323.389923,271.881042 326.333130,271.926514 328.453857,272.613037 
	C328.489227,272.311066 328.524597,272.009094 328.559998,271.707123 
	C326.922974,270.702271 325.285980,269.697449 324.085571,268.960632 
	C326.382538,265.881500 327.998718,263.714966 329.364044,260.893280 
M231.870926,224.812469 
	C233.396301,223.327789 235.096344,221.974869 236.363220,220.295227 
	C236.888290,219.599075 236.910858,217.854202 236.390152,217.222519 
	C235.841354,216.556824 234.266891,216.245377 233.323074,216.488312 
	C230.437973,217.230957 227.839615,223.046326 228.996323,226.213501 
	C230.452621,230.201004 233.568634,229.353973 236.625916,229.114288 
	C234.791275,227.780212 233.289429,226.688156 231.870926,224.812469 
M183.746460,205.965271 
	C184.498764,206.113571 185.251053,206.261856 186.003357,206.410156 
	C185.910736,206.713791 185.818130,207.017410 185.725510,207.321045 
	C184.909058,206.882278 184.092590,206.443497 183.746460,205.965271 
z"/>
<path fill="#F8F8F8" opacity="1.000000" stroke="none" 
	d="
M275.164917,186.832016 
	C276.526062,187.801529 277.596771,188.565704 278.698151,189.351746 
	C278.028748,190.706848 277.427216,191.924515 276.739624,193.316391 
	C281.112671,194.118454 285.133789,194.855988 289.781250,195.708374 
	C289.830933,196.372711 289.931976,197.724182 290.010895,198.779541 
	C287.360962,199.833481 285.135834,201.207901 282.761658,201.550980 
	C278.957367,202.100739 278.460114,204.446777 278.498718,207.483475 
	C278.549774,211.499268 277.000214,214.792343 273.039093,215.904556 
	C270.665344,216.571060 267.951660,216.026932 264.806396,216.026932 
	C261.065277,221.175888 261.390930,227.240097 265.208984,233.297668 
	C267.864746,237.511169 271.036285,241.462860 273.178131,245.915955 
	C274.753143,249.190491 275.599091,253.062866 275.757568,256.712769 
	C275.986938,261.994995 275.468750,267.333191 274.955750,272.617035 
	C274.504242,277.267456 275.771118,280.122894 280.969269,280.089386 
	C281.508820,280.085876 282.052032,280.652222 283.320312,281.359406 
	C277.007416,284.983704 271.274780,281.835663 265.265106,282.155548 
	C265.775146,274.450562 266.191101,267.078125 266.776306,259.719116 
	C267.151093,255.006683 266.883698,250.750641 261.450684,248.934906 
	C261.270386,249.144791 260.908539,249.373383 260.921021,249.579224 
	C261.499390,259.088684 255.656616,264.698425 248.810684,269.769257 
	C246.811172,271.250305 244.921005,272.928192 243.212952,274.735352 
	C242.154831,275.854919 240.569305,277.813690 240.933838,278.639557 
	C241.543594,280.020996 243.433197,280.970367 244.958313,281.768951 
	C246.001022,282.314941 247.339722,282.295654 248.518021,283.347473 
	C242.571838,286.337036 236.461304,284.250671 230.367905,284.059906 
	C228.584808,279.246460 231.084946,275.964661 233.932907,272.938507 
	C238.495026,268.090973 243.359528,263.520050 247.773407,258.545776 
	C249.118729,257.029633 250.404922,254.335922 249.993195,252.587814 
	C248.506073,246.273849 246.138367,240.172928 244.419556,233.904785 
	C243.825195,231.737320 243.501770,229.103745 244.172760,227.048035 
	C247.301086,217.463547 250.640350,207.936829 254.285355,198.537247 
	C255.835999,194.538528 259.038605,192.200989 263.827911,193.052841 
	C266.894318,185.655045 268.604401,184.641602 275.164917,186.832016 
z"/>
<path fill="#E2E2E2" opacity="1.000000" stroke="none" 
	d="
M160.827240,232.212875 
	C160.094681,229.944290 159.362122,227.675720 158.742950,224.550781 
	C157.671265,223.333267 156.486191,222.972107 155.810028,222.766052 
	C156.170670,221.154907 156.526642,219.564545 156.882629,217.974167 
	C156.376389,217.759750 155.870148,217.545334 155.363907,217.330917 
	C153.754837,220.034805 152.145782,222.738678 150.536713,225.442566 
	C150.536713,225.442566 150.354858,225.694214 150.274384,226.062225 
	C150.479584,226.344635 150.765259,226.259018 151.050949,226.173401 
	C151.964005,228.227600 151.964005,228.227600 148.106964,228.503433 
	C148.106964,226.759293 148.106964,225.038910 148.106964,222.075165 
	C144.425186,226.414124 141.665009,230.010666 138.535263,233.250153 
	C135.873352,236.005417 132.919449,240.618103 128.872940,237.928482 
	C127.137054,236.774673 127.369164,230.865662 128.409531,227.671692 
	C131.329117,218.708405 134.955414,209.956512 138.688782,201.287399 
	C139.972748,198.305939 142.217026,195.663300 144.351791,193.144928 
	C146.311142,190.833511 149.282959,189.330307 151.629715,191.907990 
	C152.721878,193.107620 151.816330,196.125992 151.816330,198.319946 
	C151.305435,198.348343 150.794540,198.376740 150.283646,198.405136 
	C150.078125,196.603287 149.872604,194.801453 149.663086,192.964478 
	C142.049316,195.174362 129.933060,222.416687 130.325531,238.000214 
	C134.854126,233.332504 138.410797,229.437210 142.236374,225.826859 
	C143.971542,224.189331 144.422684,219.780426 148.603973,222.272629 
	C148.766739,222.369629 149.634277,221.552658 149.979660,221.032852 
	C153.025162,216.449249 156.406815,213.133072 161.951508,217.666489 
	C161.613480,222.128876 161.263153,226.753433 160.881226,231.823013 
	C160.849625,232.268036 160.827240,232.212875 160.827240,232.212875 
z"/>
<path fill="#E2E2E2" opacity="1.000000" stroke="none" 
	d="
M304.975647,266.980011 
	C303.049103,269.109772 301.193878,271.309967 299.178101,273.351654 
	C296.621307,275.941284 294.204132,278.799561 291.234314,280.817139 
	C287.588562,283.293945 284.298950,281.294220 285.106750,276.973846 
	C287.840515,262.352753 292.640686,248.491989 301.898956,236.535721 
	C302.100616,236.275330 302.339386,235.903519 302.608063,235.857086 
	C304.983826,235.446533 307.370209,235.097855 309.753479,234.730911 
	C309.753479,236.922928 309.753479,239.114960 309.753479,241.306976 
	C309.266754,241.337173 308.779999,241.367386 308.293274,241.397598 
	C308.063385,239.612823 307.833496,237.828049 307.598633,236.004608 
	C299.908295,238.492691 287.818604,265.763245 288.327057,280.720764 
	C292.228088,276.926331 295.508942,273.878418 298.612610,270.659668 
	C300.334686,268.873688 301.714203,266.760437 303.377533,264.911102 
	C303.592285,264.672333 304.585724,265.133942 305.606018,265.337646 
	C305.993591,265.404144 306.050842,265.451874 305.620758,265.467377 
	C305.117706,266.007660 305.044739,266.532410 304.957153,267.036682 
	C304.942505,267.016174 304.975647,266.980011 304.975647,266.980011 
z"/>
<path fill="#E7E7E7" opacity="1.000000" stroke="none" 
	d="
M161.284882,232.207642 
	C160.827240,232.212875 160.849625,232.268036 160.823975,232.283951 
	C161.551956,231.658539 162.688187,231.161804 162.994431,230.351395 
	C164.487335,226.400925 165.758423,222.366623 167.402786,217.487244 
	C168.142654,219.481110 168.577026,220.651703 169.206360,222.347702 
	C170.762482,220.680466 171.946609,219.411774 173.719223,218.153137 
	C174.543396,218.454208 174.779099,218.745239 175.014801,219.036270 
	C169.008347,230.770950 163.001892,242.505630 156.995422,254.240311 
	C156.635025,254.127945 156.274612,254.015579 155.914215,253.903214 
	C157.856979,246.669617 159.799744,239.436020 161.284882,232.207642 
z"/>
<path fill="#E2E2E2" opacity="1.000000" stroke="none" 
	d="
M335.061859,271.926147 
	C334.059753,270.555939 333.289337,269.437714 332.551636,268.366974 
	C334.248566,265.908386 336.170563,263.123749 337.422638,261.309662 
	C337.278595,263.471680 337.062103,266.721100 336.845612,269.970551 
	C337.110779,270.069672 337.375977,270.168793 337.641144,270.267914 
	C339.448608,267.285187 341.256073,264.302460 343.063538,261.319763 
	C343.432709,261.421112 343.801910,261.522491 344.171112,261.623840 
	C344.390839,263.087250 344.610535,264.550659 344.830231,266.014099 
	C345.174530,266.150848 345.518829,266.287628 345.863098,266.424377 
	C347.151550,262.829834 348.439972,259.235291 349.728394,255.640747 
	C350.052612,255.823730 350.376801,256.006714 350.701019,256.189697 
	C351.509460,259.036713 352.317871,261.883759 353.149078,264.811035 
	C352.311646,264.647095 350.985474,264.387482 349.733368,264.142365 
	C347.207581,265.904602 347.183746,272.228333 342.733032,268.982300 
	C339.836029,270.226807 337.564789,271.202484 335.061859,271.926147 
z"/>
<path fill="#DBDBDB" opacity="1.000000" stroke="none" 
	d="
M187.799042,223.479752 
	C188.066757,222.065186 188.629730,221.030655 188.901459,219.924561 
	C190.003006,215.440704 191.015015,210.934860 192.121567,206.172318 
	C190.657471,206.014404 189.398682,205.878632 188.758835,205.809631 
	C191.261551,203.255280 193.910950,200.551239 196.581314,197.825775 
	C198.318375,199.623840 192.854004,203.985855 197.586670,204.250244 
	C196.551086,205.823227 194.745911,207.564270 194.148453,209.651077 
	C191.916428,217.447083 190.095932,225.360443 188.082443,233.219879 
	C187.659454,234.870972 187.072464,236.480042 185.706146,237.980133 
	C186.457565,233.262390 187.208984,228.544632 187.799042,223.479752 
z"/>
<path fill="#E4E4E4" opacity="1.000000" stroke="none" 
	d="
M210.043365,226.224518 
	C212.569122,223.034286 215.094910,219.844055 217.843338,216.372604 
	C218.076584,217.243469 218.315063,218.133850 218.506271,218.847687 
	C220.547714,218.112396 222.611038,217.369232 224.674347,216.626068 
	C225.089966,217.898758 225.505585,219.171417 225.921204,220.444092 
	C225.608200,220.624771 225.295212,220.805450 224.982208,220.986130 
	C224.374756,220.494720 223.767319,220.003296 222.807999,219.227219 
	C219.902298,222.777252 216.956406,226.376419 213.882416,230.132095 
	C212.411880,228.224915 211.551758,227.109406 210.339172,226.082733 
	C209.986710,226.171600 210.043365,226.224533 210.043365,226.224518 
z"/>
<path fill="#E6E6E6" opacity="1.000000" stroke="none" 
	d="
M306.050842,265.451874 
	C306.050842,265.451874 305.993591,265.404144 305.969116,265.431702 
	C306.367706,264.237274 306.790771,263.015289 307.440491,261.138733 
	C307.887817,260.899567 309.229156,260.182495 310.579224,259.460754 
	C310.967804,260.351410 311.305298,261.125031 311.470612,261.503906 
	C313.571594,260.756500 315.250641,259.962921 317.003876,259.731567 
	C317.291077,259.693665 317.905060,262.131866 318.852173,264.778687 
	C316.886047,263.399475 316.134430,262.872192 315.366486,262.333466 
	C312.306580,265.883789 309.245605,269.435364 306.184631,272.986938 
	C305.720581,272.633331 305.256500,272.279694 304.792450,271.926086 
	C305.106476,270.373688 305.420502,268.821289 305.355103,267.124451 
	C304.975647,266.980011 304.942505,267.016174 305.430176,267.112122 
	C305.962158,266.622681 306.006500,266.037292 306.050842,265.451874 
z"/>
<path fill="#DBDBDB" opacity="1.000000" stroke="none" 
	d="
M209.963638,226.140442 
	C206.716187,229.054794 206.083572,228.823792 204.640198,224.169144 
	C204.342392,224.279297 204.029404,224.363510 203.753723,224.515427 
	C201.190643,225.927795 198.633987,227.351822 196.075470,228.772461 
	C196.520309,225.354843 196.965149,221.937241 197.409988,218.519623 
	C198.058365,218.631485 198.706741,218.743332 199.355118,218.855194 
	C199.016220,220.511368 198.677307,222.167557 198.214798,224.452545 
	C198.091187,225.669235 198.091187,226.257126 198.091187,226.845032 
	C198.365524,227.072479 198.639847,227.299942 198.914185,227.527390 
	C199.136551,226.962265 199.358932,226.397141 199.581299,225.832031 
	C201.845139,223.434570 204.108963,221.037125 206.922684,218.057343 
	C207.923950,221.481171 208.578400,223.719025 209.638092,226.090714 
	C210.043365,226.224533 209.986710,226.171600 209.963638,226.140442 
z"/>
<path fill="#E4E4E4" opacity="1.000000" stroke="none" 
	d="
M329.489471,261.220856 
	C327.998718,263.714966 326.382538,265.881500 324.085571,268.960632 
	C325.285980,269.697449 326.922974,270.702271 328.559998,271.707123 
	C328.524597,272.009094 328.489227,272.311066 328.453857,272.613037 
	C326.333130,271.926514 323.389923,271.881042 322.255676,270.425720 
	C319.538788,266.939941 321.737976,263.495575 324.107025,260.648132 
	C325.691376,258.743866 327.729614,258.308105 329.489471,261.220856 
z"/>
<path fill="#E6E6E6" opacity="1.000000" stroke="none" 
	d="
M231.829254,225.204285 
	C233.289429,226.688156 234.791275,227.780212 236.625916,229.114288 
	C233.568634,229.353973 230.452621,230.201004 228.996323,226.213501 
	C227.839615,223.046326 230.437973,217.230957 233.323074,216.488312 
	C234.266891,216.245377 235.841354,216.556824 236.390152,217.222519 
	C236.910858,217.854202 236.888290,219.599075 236.363220,220.295227 
	C235.096344,221.974869 233.396301,223.327789 231.829254,225.204285 
z"/>
<path fill="#DBDBDB" opacity="1.000000" stroke="none" 
	d="
M175.453979,219.105255 
	C174.779099,218.745239 174.543396,218.454208 174.054504,218.032654 
	C177.036957,215.928879 178.638474,216.988678 179.028122,220.613602 
	C179.173294,221.964203 179.634018,223.280853 180.061737,225.079178 
	C177.769821,227.160797 175.013077,229.664597 171.349915,232.991638 
	C170.830582,226.343750 180.099274,225.309128 175.453979,219.105255 
z"/>
<path fill="#282828" opacity="1.000000" stroke="none" 
	d="
M150.918427,225.757660 
	C152.145782,222.738678 153.754837,220.034805 155.363907,217.330917 
	C155.870148,217.545334 156.376389,217.759750 156.882629,217.974167 
	C156.526642,219.564545 156.170670,221.154907 155.810028,222.766052 
	C156.486191,222.972107 157.671265,223.333267 158.743683,224.124664 
	C156.187408,225.060852 153.743774,225.566803 150.918427,225.757660 
z"/>
<path fill="#DBDBDB" opacity="1.000000" stroke="none" 
	d="
M183.511292,205.985001 
	C184.092590,206.443497 184.909058,206.882278 185.725510,207.321045 
	C185.818130,207.017410 185.910736,206.713791 186.003357,206.410156 
	C185.251053,206.261856 184.498764,206.113571 183.511292,205.985001 
z"/>
<path fill="#282828" opacity="1.000000" stroke="none" 
	d="
M150.916504,226.030090 
	C150.765259,226.259018 150.479584,226.344635 150.299896,226.215363 
	C150.405899,226.000488 150.782074,225.886780 150.916504,226.030090 
z"/>
<path fill="#000000" opacity="1.000000" stroke="none" 
	d="
M305.620758,265.467377 
	C306.006500,266.037292 305.962158,266.622681 305.444794,267.132629 
	C305.044739,266.532410 305.117706,266.007660 305.620758,265.467377 
z"/>
<path fill="#000000" opacity="1.000000" stroke="none" 
	d="
M199.283813,225.485535 
	C199.358932,226.397141 199.136551,226.962265 198.914185,227.527390 
	C198.639847,227.299942 198.365524,227.072479 198.091187,226.845032 
	C198.091187,226.257126 198.091187,225.669235 198.208069,224.795227 
	C198.545425,224.719116 198.765869,224.929092 199.283813,225.485535 
z"/>
</svg>